<?xml version="1.0" encoding="utf-8"?>
<!-- Generator: Adobe Illustrator 22.0.1, SVG Export Plug-In . SVG Version: 6.00 Build 0)  -->
<svg version="1.1" id="Layer_1" xmlns="http://www.w3.org/2000/svg" xmlns:xlink="http://www.w3.org/1999/xlink" x="0px" y="0px"
	 viewBox="0 0 425.2 425.2" style="enable-background:new 0 0 425.2 425.2;" xml:space="preserve">
<style type="text/css">
	.st0{clip-path:url(#SVGID_2_);}
</style>
<g>
	<defs>
		<rect id="SVGID_1_" width="425.2" height="425.2"/>
	</defs>
	<clipPath id="SVGID_2_">
		<use xlink:href="#SVGID_1_"  style="overflow:visible;"/>
	</clipPath>
	<path class="st0" d="M65.5,400.5c-15.5,0-26.3-6.6-33-20c-6.8-13.6-10-34.8-10-66.5c0-62.9,5.1-109.7,15.5-143.2
		c12.9-41.6,34.7-62.8,64.6-62.8c29.1,0,47.2-10.8,64.4-38.6c13.9-22.1,47.6-39.4,76.7-39.4c22.2,0,32.5,8.3,32.5,26
		c0,10.8-2.3,19-4.6,26.8c-2,6.9-3.9,13.4-3.9,21.2c0,14.4,16.3,19,67,19c46.4,0,70,12.8,70,38c0,23.7-10.2,38.4-74,84.2
		c-29.2,20.8-79.3,55-127.8,88c-12.3,8.4-24.7,16.8-36.7,25C121.6,388.6,93.4,400.5,65.5,400.5 M243.7,35.9
		c-26.9,0-59,16.4-71.7,36.6c-18.2,29.4-38.4,41.4-69.5,41.4c-49.9,0-74.1,65.4-74.1,200c0,66.9,14.8,80.6,37.1,80.6
		c26.9,0,53.3-11.2,97.2-41.3c12-8.2,24.4-16.6,36.7-25c48.5-33,98.6-67.2,127.7-87.9c65.1-46.8,71.5-59.5,71.5-79.4
		c0-21.5-20.9-32-64-32c-28,0-44.5-1.4-55.4-4.8c-12-3.7-17.5-10.1-17.5-20.2c0-8.6,2.1-15.8,4.1-22.8c2.1-7.5,4.4-15.2,4.4-25.2
		C270.3,41.7,262.6,35.9,243.7,35.9"/>
	<path class="st0" d="M205.3,56.9h7.2l22.7,57.2h-7l-6.6-16.9h-25.3l-6.6,16.9h-7L205.3,56.9z M198.4,91.5h20.8l-8.7-22.2
		c0,0-1.1-2.9-1.7-4.7c-0.6,1.8-1.7,4.7-1.7,4.7L198.4,91.5z"/>
	<path class="st0" d="M242,56.9h7.3l27.2,43.1c0,0,2,3.3,2.5,4.5V56.9h6.5v57.2h-7.3L251,71.1c0,0-2-3.3-2.5-4.5v47.6H242V56.9z"/>
	<path class="st0" d="M299,56.9h15.8c16.9,0,29.1,10.4,29.1,28.6c0,18.2-12.2,28.6-29.1,28.6H299V56.9z M336.9,85.5
		c0-15.5-9.2-22.6-22.5-22.6h-8.5v45.1h8.5C327.7,108.1,336.9,101.1,336.9,85.5"/>
	<path class="st0" d="M131.4,132.9h24c12.1,0,19.8,7.1,19.8,17.8c0,10.7-7.7,17.8-19.8,17.8h-17.2v21.6h-6.9V132.9z M138.3,162.5
		h16.8c8.3,0,13.2-3.8,13.2-11.8c0-7.9-5-11.8-13.2-11.8h-16.8V162.5z"/>
	<path class="st0" d="M194.8,132.9h7.2l22.7,57.2h-7l-6.6-16.9h-25.3l-6.6,16.9h-7L194.8,132.9z M187.9,167.5h20.8l-8.7-22.2
		c0,0-1.1-2.9-1.7-4.7c-0.6,1.8-1.7,4.7-1.7,4.7L187.9,167.5z"/>
	<path class="st0" d="M251.2,165.3h-12.9v24.8h-6.9v-57.2h22.8c11.4,0,18.4,6.9,18.4,16.2c0,7.9-5.3,14.1-14,15.8l14.3,25.3h-7.7
		L251.2,165.3z M238.3,159.2H253c8.1,0,12.8-3.6,12.8-10.1c0-6.5-4.7-10.1-12.8-10.1h-14.7V159.2z"/>
	<polygon class="st0" points="277.6,132.9 320.1,132.9 320.1,139 302.2,139 302.2,190.1 295.4,190.1 295.4,139 277.6,139 	"/>
	<rect x="326.2" y="162.2" class="st0" width="57.3" height="5.1"/>
	<path class="st0" d="M54,208.9h7.3L88.5,252c0,0,2,3.3,2.5,4.5v-47.6h6.5v57.2h-7.3L63,223.1c0,0-2-3.3-2.5-4.5v47.6H54V208.9z"/>
	<polygon class="st0" points="111,208.9 146.8,208.9 146.8,215 117.9,215 117.9,233.5 144.5,233.5 144.5,239.6 117.9,239.6 
		117.9,260.1 147.1,260.1 147.1,266.1 111,266.1 	"/>
	<path class="st0" d="M178.2,241.3h-12.9v24.8h-6.9v-57.2h22.8c11.4,0,18.4,6.9,18.4,16.2c0,7.9-5.3,14.1-14,15.8l14.3,25.3h-7.7
		L178.2,241.3z M165.3,235.2H180c8.1,0,12.8-3.6,12.8-10.1c0-6.5-4.7-10.1-12.8-10.1h-14.7V235.2z"/>
	<path class="st0" d="M230.2,233.5c12.3,2.3,18.5,7.6,18.5,16.7c0,9.5-8.3,17.1-20.7,17.1c-13,0-21.1-7.9-22.8-17.7l6-3.2
		c1.6,10.1,8,14.9,16.8,14.9c8.9,0,13.8-5,13.8-10.5c0-6.6-5.2-9.8-15.1-11.6c-11-2-18.8-6.9-18.8-16.4c0-8.7,8-14.9,19.1-14.9
		c10.1,0,17.8,5.4,20.7,13.7l-5.6,3.3c-2.4-6.9-7.7-11.1-15.1-11.1c-7.1,0-12.4,3.2-12.4,9C214.6,228.3,219.6,231.6,230.2,233.5"/>
	<rect x="283.7" y="208.9" class="st0" width="6.9" height="57.2"/>
	<path class="st0" d="M304.1,208.9h7.3l27.2,43.1c0,0,2,3.3,2.5,4.5v-47.6h6.5v57.2h-7.3l-27.2-43.1c0,0-2-3.3-2.5-4.5v47.6h-6.5
		V208.9z"/>
	<path class="st0" d="M159.3,328.7c-4.6,8.7-11.9,14.6-24.2,14.6c-15.9,0-27.5-12.7-27.5-29.7c0-17.1,12.7-29.7,27.9-29.7
		c11.3,0,19.9,5.8,23.9,14.7l-5.3,3.8c-4.1-8.6-10.9-12.4-18.7-12.4c-11.7,0-20.8,10.3-20.8,23.7c0,13.4,8.3,23.7,20.7,23.7
		c8.5,0,14.3-3.5,18.9-12.3L159.3,328.7z"/>
	<path class="st0" d="M189.3,317.3h-12.9v24.8h-6.9v-57.2h22.8c11.4,0,18.4,6.9,18.4,16.2c0,7.9-5.3,14.1-14,15.8l14.3,25.3h-7.7
		L189.3,317.3z M176.4,311.2h14.7c8.1,0,12.7-3.6,12.7-10.1c0-6.5-4.7-10.1-12.7-10.1h-14.7V311.2z"/>
	<rect x="220.9" y="284.9" class="st0" width="6.9" height="57.2"/>
	<path class="st0" d="M241.4,284.9h7.4l20.6,51.5l20.6-51.5h7.4v57.2h-6.5V298c-0.5,1.5-2.9,8-2.9,8l-15,36.1h-7l-15-36.1
		c0,0-2.5-6.5-2.9-8v44.1h-6.5V284.9z"/>
	<polygon class="st0" points="310.8,284.9 346.6,284.9 346.6,291 317.7,291 317.7,309.5 344.3,309.5 344.3,315.6 317.7,315.6 
		317.7,336.1 346.9,336.1 346.9,342.1 310.8,342.1 	"/>
</g>
</svg>
